PathFileType	4	(X/Y/Z)	C:/Users/beibeiliu/ov580/test_trc/capture2\sequence.31_training_dense_left.trc
DataRate	CameraRate	NumFrames	NumMarkers	Units	OrigDataRate	OrigDataStartFrame	OrigNumFrames
120	120	15	19	mm	120	151	400
Frame#	Time	ThumbCMC			ThumbMCP			ThumbIP			ThumbTip			IndexMCP			IndexPIP			IndexTip			MiddleMCP			MiddlePIP			MiddleTip			RingMCP			RingPIP			RingTip			PinkyMCP			PinkyPIP			PinkyTip			BackHand1			BackHand2			BackHand3	
		X0	Y0	Z0	X1	Y1	Z1	X2	Y2	Z2	X3	Y3	Z3	X4	Y4	Z4	X5	Y5	Z5	X6	Y6	Z6	X7	Y7	Z7	X8	Y8	Z8	X9	Y9	Z9	X10	Y10	Z10	X11	Y11	Z11	X12	Y12	Z12	X13	Y13	Z13	X14	Y14	Z14	X15	Y15	Z15	X16	Y16	Z16	X17	Y17	Z17	X18	Y18	Z18	
150	1.25	-134.114	30.83	17.5805	-107.83	35.1169	-3.41191	-95.009	37.3612	-23.6538	-85.1644	27.1006	-46.8081	-136.377	10.2526	-48.7302	-104.869	11.5064	-58.1835	-92.0689	10.7849	-26.8446	-128.455	-11.817	-47.7818	-96.4922	-9.76806	-42.9494	-95.0399	1.7267	-11.7787	-122.071	-23.7448	-41.2382	-94.0322	-19.0491	-29.446	-101.026	-6.31664	-0.439566	-122.133	-43.5884	-27.444	-95.9142	-30.1007	-19.1404	-102.643	-12.7997	9.33941	-161.844	-23.1469	6.35843	-164.032	-18.521	35.2967	-166.314	11.6443	14.4203	
151	1.25833	-132.171	35.015	16.7532	-107.96	31.5392	-1.91176	-91.5603	33.6502	-27.3193	-85.3181	15.7785	-44.2209	-137.512	10.6167	-48.2876	-107.275	9.28417	-59.2743	-92.7252	12.2849	-27.6753	-130.434	-11.5264	-45.9756	-96.7042	-9.60303	-47.0513	-94.4957	2.78487	-10.9955	-120.846	-26.6529	-41.3967	-93.6464	-18.7052	-30.8765	-96.4771	-7.19359	-2.56489	-121.431	-40.0804	-28.4085	-94.7113	-31.3752	-20.4138	-99.6838	-15.1756	5.79927	-162.258	-26.6763	2.83077	-164.524	-20.6888	34.7911	-164.383	7.161	11.3008	
152	1.26667	-131.486	33.6138	17.4923	-105.594	33.8767	1.87232	-90.6011	32.5243	-23.4153	-84.0953	14.5619	-42.6497	-135.278	12.6819	-50.4244	-106.058	12.5929	-59.2977	-91.414	13.4954	-30.5806	-129.507	-10.6619	-48.332	-97.1746	-6.95738	-49.5032	-91.8957	0.873454	-13.807	-123.962	-25.2652	-39.9738	-93.9379	-20.8385	-34.0276	-97.5829	-6.71168	-0.678495	-120.944	-44.1136	-27.4584	-95.7767	-28.861	-22.6531	-101.251	-13.0268	3.45371	-160.6	-24.3451	5.98081	-165.627	-16.3507	34.6089	-164.185	8.84146	14.3477	
153	1.275	-131.094	31.544	18.9083	-103.705	35.3291	-0.181967	-91.5589	27.6757	-23.6348	-83.8912	12.6052	-40.3926	-136.342	9.34949	-47.0337	-103.757	11.5412	-58.5211	-92.3711	12.4621	-26.6539	-128.05	-7.92646	-51.2636	-96.8712	-9.12099	-49.4027	-91.1362	3.64414	-15.0828	-124.037	-29.1571	-38.468	-91.532	-20.0767	-32.4901	-94.4323	-6.31008	-4.87782	-121.574	-39.7768	-26.965	-93.7371	-29.978	-19.6339	-99.5313	-14.1101	4.79779	-159.355	-26.3103	2.61675	-164.761	-18.6029	36.9583	-164.527	9.41506	15.7687	
154	1.28333	-130.695	31.7579	18.7647	-102.181	35.6724	-2.25894	-87.9585	29.2945	-27.5137	-85.6518	8.08118	-40.2179	-134.118	12.1507	-52.2136	-105.144	7.75367	-57.9126	-91.631	11.8363	-29.6654	-128.743	-10.9825	-48.8064	-96.771	-6.78167	-50.419	-91.3494	4.09264	-13.4837	-124.519	-23.778	-38.8367	-91.3662	-20.4529	-30.7983	-95.452	-6.96978	-2.2777	-121.54	-42.2569	-25.9213	-94.1995	-27.5397	-22.4056	-98.2398	-15.3637	3.9629	-159.748	-22.3864	4.48898	-163.337	-17.8275	37.6114	-161.838	11.4305	12.508	
155	1.29167	-130.701	33.5604	22.0144	-104.41	30.8973	-1.50194	-88.7957	29.1708	-24.4177	-83.4568	8.64567	-44.4076	-135.474	14.8433	-48.6873	-104.416	12.5384	-59.7079	-90.7064	15.243	-28.8623	-129.762	-8.56205	-49.1375	-95.1874	-4.62379	-48.0385	-90.5068	1.88499	-15.0605	-123.459	-23.1171	-40.0444	-91.9326	-21.5578	-34.0534	-95.3222	-5.53949	-3.19948	-119.451	-38.8459	-28.5588	-93.5159	-30.228	-21.1173	-96.7459	-13.5712	4.83178	-160.576	-21.0593	4.22247	-165.516	-15.3481	37.3403	-164.171	9.36179	16.1257	
156	1.3	-130.052	33.9254	19.1521	-105.289	32.449	-0.0619068	-88.6995	30.3904	-25.5256	-80.7801	13.4773	-43.1235	-133.782	9.38672	-50.1093	-105.619	8.75264	-58.8215	-91.453	13.9983	-29.5365	-127.534	-11.0767	-50.5482	-95.9957	-7.93461	-49.662	-90.859	1.14186	-12.9776	-120.837	-27.8655	-41.1814	-92.3093	-16.6059	-34.2804	-95.8377	-5.32682	-2.57263	-122.77	-37.9979	-25.4093	-94.8881	-29.8657	-24.1792	-95.0309	-14.7033	6.19672	-158.42	-22.6127	3.6827	-163.229	-15.1023	34.7233	-162.119	8.4755	12.2859	
157	1.30833	-130.463	36.6574	22.232	-104.202	34.292	3.44489	-88.4319	30.7691	-24.2576	-83.4877	11.1328	-41.3512	-135.073	15.0779	-49.5921	-106.917	11.6561	-59.6918	-90.8631	17.3234	-28.8865	-129.873	-10.6748	-47.3356	-95.4323	-5.41931	-49.9769	-92.0723	2.39314	-11.6066	-121.019	-28.2749	-39.1828	-92.6095	-17.9771	-34.3869	-96.0315	-5.49882	-2.11255	-120.107	-40.1038	-27.5426	-93.6263	-29.5064	-24.0378	-98.2262	-11.2386	1.83834	-158.303	-25.4047	3.19633	-163.192	-18.4304	35.1508	-162.367	13.3364	14.7573	
158	1.31667	-130.372	33.506	19.7741	-103.677	35.6283	-1.00181	-91.2575	30.7427	-21.515	-83.2378	16.3084	-41.471	-134.219	13.2092	-51.0125	-104.969	12.5987	-59.2173	-90.9147	15.4056	-29.4894	-126.533	-7.29973	-51.7432	-96.8956	-5.72152	-52.0492	-90.4922	1.6277	-15.3367	-118.682	-26.5559	-42.519	-91.5857	-16.5574	-35.233	-92.4332	-6.39514	-4.07529	-118.466	-40.5301	-28.4963	-92.1336	-32.104	-22.2158	-98.4822	-12.2888	5.16511	-157.611	-22.7633	6.2411	-163.489	-19.0662	35.6016	-163.098	12.4224	13.1853	
159	1.325	-130.326	35.3371	22.2989	-104.818	36.942	-2.53957	-92.2875	33.9222	-26.8928	-84.4853	19.3176	-45.5461	-135.981	17.1277	-48.6839	-103.645	14.1019	-59.8109	-91.893	14.2057	-31.8548	-129.085	-9.2698	-48.4304	-95.1299	-7.40232	-48.858	-91.9633	4.07343	-13.932	-120.509	-27.0279	-39.6885	-91.6983	-15.2358	-35.5117	-95.1718	-3.37951	-4.45145	-119.808	-38.0689	-28.2099	-93.7058	-27.6888	-23.5207	-95.1621	-9.72275	1.60963	-159.421	-23.707	5.83602	-163.951	-18.8793	33.7842	-162.519	9.46081	12.6095	
160	1.33333	-131.36	33.7502	23.3897	-108.212	37.2118	-0.450431	-94.2699	38.1091	-26.1117	-86.4219	24.2842	-50.0889	-136.285	11.8225	-50.6868	-107.498	11.9791	-62.3195	-90.7068	16.3769	-30.6372	-126.956	-7.47117	-50.5388	-95.6022	-5.39277	-48.3183	-94.2373	4.01876	-10.7644	-122.809	-25.2045	-38.777	-89.2635	-18.1671	-30.9954	-94.7156	-5.49907	-3.83327	-119.709	-40.5775	-25.8728	-90.6854	-27.3916	-19.3239	-99.4264	-7.63186	4.62074	-159.077	-20.4257	1.39413	-162.161	-14.4025	34.2201	-163.696	13.1099	14.671	
161	1.34167	-132.215	34.1424	22.6857	-108.897	40.9137	-1.32389	-98.988	39.0505	-27.5536	-91.6287	31.2278	-50.9582	-136.726	15.2579	-49.4195	-109.422	12.3576	-63.8405	-91.0876	14.0844	-31.6649	-129.255	-8.92082	-46.7917	-96.2733	-8.60722	-48.0751	-93.5112	2.12061	-12.2863	-120.955	-27.1986	-40.7271	-92.9009	-16.9798	-34.2723	-98.2341	-5.34528	-1.32787	-121.809	-40.3264	-25.2834	-94.3018	-28.9351	-23.3213	-97.0262	-13.3708	5.78702	-158.296	-22.0189	2.10266	-161.969	-19.3404	33.0442	-162.512	8.98472	13.3076	
162	1.35	-133.795	33.7805	21.2588	-113.644	40.4781	-3.81561	-103.843	42.992	-27.2287	-99.6466	34.1813	-49.7703	-137.138	14.8807	-50.7408	-105.031	8.78698	-60.611	-90.2219	14.7324	-30.697	-127.77	-8.79484	-50.5489	-94.7181	-3.93069	-47.5011	-95.0244	5.49787	-13.2078	-119.605	-23.7552	-42.1973	-93.0406	-18.8983	-33.1666	-97.4544	-5.94211	-2.99461	-120.824	-39.9859	-29.0543	-92.4989	-31.155	-21.7817	-99.5054	-11.6302	7.01332	-159.46	-21.718	3.8225	-163.181	-17.0911	31.9706	-163.073	14.7035	14.7569	
163	1.35833	-134.541	35.9774	20.1404	-117.876	40.7386	-1.40712	-110.737	41.9546	-33.0186	-105.685	35.6513	-52.0588	-135.53	13.4922	-50.6822	-105.14	9.10485	-60.2109	-90.8285	14.8326	-32.1118	-127.998	-6.53546	-50.6457	-97.4567	-7.58399	-49.1696	-95.3899	5.71	-15.0318	-122.988	-25.1545	-40.007	-93.857	-17.7713	-36.3567	-99.6109	-2.19631	-4.9005	-122.322	-37.1824	-27.6586	-94.0259	-28.7905	-24.9928	-96.6232	-14.1421	2.18099	-161.039	-22.1848	4.21168	-163.325	-13.6464	34.1243	-162.175	14.8561	15.7784	
164	1.36667	-136.009	34.013	19.9665	-120.935	40.9547	-2.55683	-116.555	38.4512	-31.2718	-112.3	34.9117	-54.1919	-134.962	13.7214	-52.9486	-105.489	12.0763	-61.535	-92.7026	16.0807	-32.4562	-129.745	-5.04595	-49.8259	-96.2582	-5.53974	-48.3759	-98.0125	4.35017	-12.2367	-121.975	-24.5833	-41.2378	-91.9268	-19.7458	-35.0395	-97.8244	-3.6927	-7.25009	-121.534	-39.8793	-26.8809	-93.6819	-25.6262	-25.3571	-98.2562	-8.19281	1.77947	-158.016	-23.0017	4.56961	-162.689	-18.5589	36.1917	-163.215	12.1899	11.7845	
